<svg width="450" height="67" viewBox="0 0 450 67" fill="none" xmlns="http://www.w3.org/2000/svg">
<g clip-path="url(#clip0_4328_4276)">
<g filter="url(#filter0_di_4328_4276)">
<path d="M41.0459 67.168L3.29395 67.4424L0.431641 60.2334L55 55.6309L41.0459 67.168ZM22.4209 54.2031C14.3402 53.88 9.55724 54.2025 0 54.9941C5.53325 45.7788 17.4841 24.7942 21.0215 14.5762L22.4209 54.2031ZM27.1221 0C38.3392 19.967 51.9049 44.5747 54.4697 50.0215C44.7748 50.8358 38.8615 51.4451 28.9883 52.8359L27.1221 0Z" fill="url(#paint0_linear_4328_4276)"/>
</g>
<g filter="url(#filter1_di_4328_4276)">
<path d="M75 45.5659L87.4966 20.0434H95.8988L108.353 45.5659H101.785L99.2682 40.0534H83.9993L81.227 45.5659H75ZM85.5347 35.7997H97.6901L91.847 23.9499H91.4205L85.5347 35.7997Z" fill="black"/>
<path d="M118.087 46C115.499 46 113.694 45.291 112.67 43.8731C111.646 42.4552 111.135 40.5743 111.135 38.2304V20.0434H116.765V38.404C116.765 39.7641 117.092 40.6756 117.746 41.1386C118.4 41.6016 119.21 41.8331 120.177 41.8331H129.219C130.128 41.8331 130.925 41.6016 131.607 41.1386C132.289 40.6466 132.631 39.7351 132.631 38.404V20.0434H138.26V38.2304C138.26 39.793 138.047 41.153 137.621 42.3105C137.194 43.468 136.483 44.3795 135.488 45.0451C134.493 45.6817 133.114 46 131.351 46H118.087Z" fill="black"/>
<path d="M153.002 45.5659L152.959 24.1669H141.87V20H169.763V24.1669H158.631V45.5659H153.002Z" fill="black"/>
<path d="M181.421 45.5659C179.431 45.5659 177.867 45.2766 176.73 44.6978C175.592 44.1191 174.782 43.251 174.299 42.0935C173.844 40.936 173.616 39.5036 173.616 37.7963V27.7696C173.616 26.0913 173.844 24.6878 174.299 23.5593C174.753 22.4018 175.55 21.5337 176.687 20.9549C177.824 20.3472 179.402 20.0434 181.421 20.0434H193.875C195.865 20.0434 197.415 20.3472 198.524 20.9549C199.661 21.5337 200.458 22.4018 200.912 23.5593C201.396 24.6878 201.638 26.0913 201.638 27.7696V37.7963C201.638 40.3428 201.083 42.2816 199.974 43.6127C198.865 44.9149 196.832 45.5659 193.875 45.5659H181.421ZM182.658 41.399H192.681C193.733 41.399 194.543 41.1241 195.112 40.5743C195.709 40.0245 196.008 39.2721 196.008 38.3172V27.2487C196.008 26.4096 195.709 25.7006 195.112 25.1219C194.515 24.5142 193.705 24.2104 192.681 24.2104H182.658C181.634 24.2104 180.81 24.4853 180.184 25.0351C179.559 25.5849 179.246 26.3228 179.246 27.2487V38.3172C179.246 39.3011 179.545 40.0679 180.142 40.6177C180.767 41.1386 181.606 41.399 182.658 41.399Z" fill="black"/>
<path d="M208.456 45.5659V23.5159L208.03 20.0434H214.513L224.152 37.4057L234.132 20.0434H239.89V45.5659H234.26V29.3756H233.791L232.127 33.1519L226.753 42.9616H221.593L216.219 33.1519L214.513 29.3756H214.086V45.5659H208.456Z" fill="black"/>
<path d="M243.311 45.5659L255.808 20.0434H264.21L276.664 45.5659H270.096L267.58 40.0534H252.311L249.538 45.5659H243.311ZM253.846 35.7997H266.002L260.158 23.9499H259.732L253.846 35.7997Z" fill="black"/>
<path d="M283.536 45.5659L283.493 24.1669H272.404V20H300.297V24.1669H289.165V45.5659H283.536Z" fill="black"/>
<path d="M311.955 45.5659C309.965 45.5659 308.401 45.2766 307.264 44.6978C306.126 44.1191 305.316 43.251 304.833 42.0935C304.378 40.936 304.15 39.5036 304.15 37.7963V27.7696C304.15 26.0913 304.378 24.6878 304.833 23.5593C305.288 22.4018 306.084 21.5337 307.221 20.9549C308.358 20.3472 309.936 20.0434 311.955 20.0434H324.409C326.4 20.0434 327.949 20.3472 329.058 20.9549C330.195 21.5337 330.992 22.4018 331.447 23.5593C331.93 24.6878 332.172 26.0913 332.172 27.7696V37.7963C332.172 40.3428 331.617 42.2816 330.508 43.6127C329.399 44.9149 327.366 45.5659 324.409 45.5659H311.955ZM313.192 41.399H323.215C324.267 41.399 325.077 41.1241 325.646 40.5743C326.243 40.0245 326.542 39.2721 326.542 38.3172V27.2487C326.542 26.4096 326.243 25.7006 325.646 25.1219C325.049 24.5142 324.239 24.2104 323.215 24.2104H313.192C312.168 24.2104 311.344 24.4853 310.718 25.0351C310.093 25.5849 309.78 26.3228 309.78 27.2487V38.3172C309.78 39.3011 310.079 40.0679 310.676 40.6177C311.301 41.1386 312.14 41.399 313.192 41.399Z" fill="black"/>
<path d="M343.341 45.5659C341.407 45.5659 339.986 45.4791 339.076 45.3055C338.166 45.1319 337.711 44.9293 337.711 44.6978L339.417 40.9215C340.071 41.0373 341.692 41.153 344.279 41.2688C346.895 41.3556 350.478 41.399 355.027 41.399H355.837C357.06 41.399 357.927 41.182 358.439 40.7479C358.951 40.2849 359.207 39.5181 359.207 38.4474V37.5793C359.207 36.5665 358.993 35.8431 358.567 35.409C358.169 34.975 357.259 34.7579 355.837 34.7579H345.942C343.071 34.7579 340.981 34.2226 339.673 33.1519C338.365 32.0523 337.711 30.2727 337.711 27.813V27.1185C337.711 25.8453 337.938 24.6733 338.393 23.6027C338.877 22.532 339.687 21.6784 340.824 21.0417C341.962 20.3762 343.526 20.0434 345.516 20.0434H357.117C359.05 20.0434 360.614 20.1447 361.808 20.3472C363.003 20.5498 363.6 20.7668 363.6 20.9983L362.747 24.6444C362.007 24.5576 360.33 24.4708 357.714 24.384C355.098 24.2682 351.586 24.2104 347.179 24.2104L346.71 24.1669C345.402 24.1669 344.521 24.4418 344.066 24.9917C343.611 25.5125 343.369 26.1781 343.341 26.9883V27.7262C343.341 28.6811 343.597 29.4046 344.108 29.8965C344.649 30.3595 345.53 30.591 346.753 30.591H356.221C358.041 30.591 359.591 30.7791 360.87 31.1553C362.15 31.5314 363.131 32.2259 363.813 33.2387C364.495 34.2226 364.837 35.6839 364.837 37.6227V38.3172C364.837 40.4875 364.282 42.2382 363.173 43.5693C362.093 44.9004 360.202 45.5659 357.501 45.5659H343.341Z" fill="black"/>
<path d="M376.761 45.5659L389.258 20.0434H397.66L410.114 45.5659H403.546L401.029 40.0534H385.76L382.988 45.5659H376.761ZM387.296 35.7997H399.451L393.608 23.9499H393.182L387.296 35.7997Z" fill="black"/>
<path d="M416.564 45.5659C415.512 45.5659 414.744 45.3489 414.261 44.9149C413.777 44.4808 413.536 43.7574 413.536 42.7446C413.536 41.7028 413.763 40.9794 414.218 40.5743C414.701 40.1402 415.483 39.9232 416.564 39.9232C417.644 39.9232 418.426 40.1402 418.909 40.5743C419.393 40.9794 419.635 41.7028 419.635 42.7446C419.635 43.7284 419.393 44.4519 418.909 44.9149C418.426 45.3489 417.644 45.5659 416.564 45.5659Z" fill="black"/>
<path d="M426.447 45.5659V20.0434H432.077V45.5659H426.447Z" fill="black"/>
<path d="M441.929 45.5659C440.877 45.5659 440.109 45.3489 439.626 44.9149C439.143 44.4808 438.901 43.7574 438.901 42.7446C438.901 41.7028 439.128 40.9794 439.583 40.5743C440.067 40.1402 440.849 39.9232 441.929 39.9232C443.01 39.9232 443.792 40.1402 444.275 40.5743C444.758 40.9794 445 41.7028 445 42.7446C445 43.7284 444.758 44.4519 444.275 44.9149C443.792 45.3489 443.01 45.5659 441.929 45.5659Z" fill="black"/>
</g>
</g>
<defs>
<filter id="filter0_di_4328_4276" x="-1" y="-1" width="59" height="71.4424" filterUnits="userSpaceOnUse" color-interpolation-filters="sRGB">
<feFlood flood-opacity="0" result="BackgroundImageFix"/>
<feColorMatrix in="SourceAlpha" type="matrix" values="0 0 0 0 0 0 0 0 0 0 0 0 0 0 0 0 0 0 127 0" result="hardAlpha"/>
<feOffset dx="1" dy="1"/>
<feGaussianBlur stdDeviation="1"/>
<feComposite in2="hardAlpha" operator="out"/>
<feColorMatrix type="matrix" values="0 0 0 0 0 0 0 0 0 0 0 0 0 0 0 0 0 0 0.25 0"/>
<feBlend mode="normal" in2="BackgroundImageFix" result="effect1_dropShadow_4328_4276"/>
<feBlend mode="normal" in="SourceGraphic" in2="effect1_dropShadow_4328_4276" result="shape"/>
<feColorMatrix in="SourceAlpha" type="matrix" values="0 0 0 0 0 0 0 0 0 0 0 0 0 0 0 0 0 0 127 0" result="hardAlpha"/>
<feOffset dx="1" dy="1"/>
<feGaussianBlur stdDeviation="0.5"/>
<feComposite in2="hardAlpha" operator="arithmetic" k2="-1" k3="1"/>
<feColorMatrix type="matrix" values="0 0 0 0 1 0 0 0 0 1 0 0 0 0 1 0 0 0 0.25 0"/>
<feBlend mode="normal" in2="shape" result="effect2_innerShadow_4328_4276"/>
</filter>
<filter id="filter1_di_4328_4276" x="75" y="20" width="374" height="30" filterUnits="userSpaceOnUse" color-interpolation-filters="sRGB">
<feFlood flood-opacity="0" result="BackgroundImageFix"/>
<feColorMatrix in="SourceAlpha" type="matrix" values="0 0 0 0 0 0 0 0 0 0 0 0 0 0 0 0 0 0 127 0" result="hardAlpha"/>
<feOffset dx="2" dy="2"/>
<feGaussianBlur stdDeviation="1"/>
<feComposite in2="hardAlpha" operator="out"/>
<feColorMatrix type="matrix" values="0 0 0 0 0 0 0 0 0 0 0 0 0 0 0 0 0 0 0.25 0"/>
<feBlend mode="normal" in2="BackgroundImageFix" result="effect1_dropShadow_4328_4276"/>
<feBlend mode="normal" in="SourceGraphic" in2="effect1_dropShadow_4328_4276" result="shape"/>
<feColorMatrix in="SourceAlpha" type="matrix" values="0 0 0 0 0 0 0 0 0 0 0 0 0 0 0 0 0 0 127 0" result="hardAlpha"/>
<feOffset dx="1" dy="1"/>
<feGaussianBlur stdDeviation="0.5"/>
<feComposite in2="hardAlpha" operator="arithmetic" k2="-1" k3="1"/>
<feColorMatrix type="matrix" values="0 0 0 0 1 0 0 0 0 1 0 0 0 0 1 0 0 0 0.5 0"/>
<feBlend mode="normal" in2="shape" result="effect2_innerShadow_4328_4276"/>
</filter>
<linearGradient id="paint0_linear_4328_4276" x1="18.117" y1="56.9497" x2="-6.42575" y2="22.3001" gradientUnits="userSpaceOnUse">
<stop stop-color="#D53B00"/>
<stop offset="1" stop-color="#FF6A02"/>
</linearGradient>
<clipPath id="clip0_4328_4276">
<rect width="450" height="67" fill="white"/>
</clipPath>
</defs>
</svg>
