<svg width="450" height="67" viewBox="0 0 450 67" fill="none" xmlns="http://www.w3.org/2000/svg">
<g clip-path="url(#clip0_4328_4277)">
<path d="M47.0459 67.168L9.29395 67.4424L6.43164 60.2334L61 55.6309L47.0459 67.168ZM28.4209 54.2031C20.3402 53.88 15.5572 54.2025 6 54.9941C11.5332 45.7788 23.4841 24.7942 27.0215 14.5762L28.4209 54.2031ZM33.1221 0C44.3392 19.967 57.9049 44.5747 60.4697 50.0215C50.7748 50.8358 44.8615 51.4451 34.9883 52.8359L33.1221 0Z" fill="url(#paint0_linear_4328_4277)"/>
<path d="M76 60.5659L88.4966 35.0434H96.8988L109.353 60.5659H102.785L100.268 55.0534H84.9993L82.227 60.5659H76ZM86.5347 50.7997H98.6901L92.847 38.9499H92.4205L86.5347 50.7997Z" fill="white"/>
<path d="M119.087 61C116.499 61 114.694 60.291 113.67 58.8731C112.646 57.4552 112.135 55.5743 112.135 53.2304V35.0434H117.765V53.404C117.765 54.7641 118.092 55.6756 118.746 56.1386C119.4 56.6016 120.21 56.8331 121.177 56.8331H130.219C131.128 56.8331 131.925 56.6016 132.607 56.1386C133.289 55.6466 133.631 54.7351 133.631 53.404V35.0434H139.26V53.2304C139.26 54.793 139.047 56.153 138.621 57.3105C138.194 58.468 137.483 59.3795 136.488 60.0451C135.493 60.6817 134.114 61 132.351 61H119.087Z" fill="white"/>
<path d="M154.002 60.5659L153.959 39.1669H142.87V35H170.763V39.1669H159.631V60.5659H154.002Z" fill="white"/>
<path d="M182.421 60.5659C180.431 60.5659 178.867 60.2766 177.73 59.6978C176.592 59.1191 175.782 58.251 175.299 57.0935C174.844 55.936 174.616 54.5036 174.616 52.7963V42.7696C174.616 41.0913 174.844 39.6878 175.299 38.5593C175.753 37.4018 176.55 36.5337 177.687 35.9549C178.824 35.3472 180.402 35.0434 182.421 35.0434H194.875C196.865 35.0434 198.415 35.3472 199.524 35.9549C200.661 36.5337 201.458 37.4018 201.912 38.5593C202.396 39.6878 202.638 41.0913 202.638 42.7696V52.7963C202.638 55.3428 202.083 57.2816 200.974 58.6127C199.865 59.9149 197.832 60.5659 194.875 60.5659H182.421ZM183.658 56.399H193.681C194.733 56.399 195.543 56.1241 196.112 55.5743C196.709 55.0245 197.008 54.2721 197.008 53.3172V42.2487C197.008 41.4096 196.709 40.7006 196.112 40.1219C195.515 39.5142 194.705 39.2104 193.681 39.2104H183.658C182.634 39.2104 181.81 39.4853 181.184 40.0351C180.559 40.5849 180.246 41.3228 180.246 42.2487V53.3172C180.246 54.3011 180.545 55.0679 181.142 55.6177C181.767 56.1386 182.606 56.399 183.658 56.399Z" fill="white"/>
<path d="M209.456 60.5659V38.5159L209.03 35.0434H215.513L225.152 52.4057L235.132 35.0434H240.89V60.5659H235.26V44.3756H234.791L233.127 48.1519L227.753 57.9616H222.593L217.219 48.1519L215.513 44.3756H215.086V60.5659H209.456Z" fill="white"/>
<path d="M244.311 60.5659L256.808 35.0434H265.21L277.664 60.5659H271.096L268.58 55.0534H253.311L250.538 60.5659H244.311ZM254.846 50.7997H267.002L261.158 38.9499H260.732L254.846 50.7997Z" fill="white"/>
<path d="M284.536 60.5659L284.493 39.1669H273.404V35H301.297V39.1669H290.165V60.5659H284.536Z" fill="white"/>
<path d="M312.955 60.5659C310.965 60.5659 309.401 60.2766 308.264 59.6978C307.126 59.1191 306.316 58.251 305.833 57.0935C305.378 55.936 305.15 54.5036 305.15 52.7963V42.7696C305.15 41.0913 305.378 39.6878 305.833 38.5593C306.288 37.4018 307.084 36.5337 308.221 35.9549C309.358 35.3472 310.936 35.0434 312.955 35.0434H325.409C327.4 35.0434 328.949 35.3472 330.058 35.9549C331.195 36.5337 331.992 37.4018 332.447 38.5593C332.93 39.6878 333.172 41.0913 333.172 42.7696V52.7963C333.172 55.3428 332.617 57.2816 331.508 58.6127C330.399 59.9149 328.366 60.5659 325.409 60.5659H312.955ZM314.192 56.399H324.215C325.267 56.399 326.077 56.1241 326.646 55.5743C327.243 55.0245 327.542 54.2721 327.542 53.3172V42.2487C327.542 41.4096 327.243 40.7006 326.646 40.1219C326.049 39.5142 325.239 39.2104 324.215 39.2104H314.192C313.168 39.2104 312.344 39.4853 311.718 40.0351C311.093 40.5849 310.78 41.3228 310.78 42.2487V53.3172C310.78 54.3011 311.079 55.0679 311.676 55.6177C312.301 56.1386 313.14 56.399 314.192 56.399Z" fill="white"/>
<path d="M344.341 60.5659C342.407 60.5659 340.986 60.4791 340.076 60.3055C339.166 60.1319 338.711 59.9293 338.711 59.6978L340.417 55.9215C341.071 56.0373 342.692 56.153 345.279 56.2688C347.895 56.3556 351.478 56.399 356.027 56.399H356.837C358.06 56.399 358.927 56.182 359.439 55.7479C359.951 55.2849 360.207 54.5181 360.207 53.4474V52.5793C360.207 51.5665 359.993 50.8431 359.567 50.409C359.169 49.975 358.259 49.7579 356.837 49.7579H346.942C344.071 49.7579 341.981 49.2226 340.673 48.1519C339.365 47.0523 338.711 45.2727 338.711 42.813V42.1185C338.711 40.8453 338.938 39.6733 339.393 38.6027C339.877 37.532 340.687 36.6784 341.824 36.0417C342.962 35.3762 344.526 35.0434 346.516 35.0434H358.117C360.05 35.0434 361.614 35.1447 362.808 35.3472C364.003 35.5498 364.6 35.7668 364.6 35.9983L363.747 39.6444C363.007 39.5576 361.33 39.4708 358.714 39.384C356.098 39.2682 352.586 39.2104 348.179 39.2104L347.71 39.1669C346.402 39.1669 345.521 39.4418 345.066 39.9917C344.611 40.5125 344.369 41.1781 344.341 41.9883V42.7262C344.341 43.6811 344.597 44.4046 345.108 44.8965C345.649 45.3595 346.53 45.591 347.753 45.591H357.221C359.041 45.591 360.591 45.7791 361.87 46.1553C363.15 46.5314 364.131 47.2259 364.813 48.2387C365.495 49.2226 365.837 50.6839 365.837 52.6227V53.3172C365.837 55.4875 365.282 57.2382 364.173 58.5693C363.093 59.9004 361.202 60.5659 358.501 60.5659H344.341Z" fill="white"/>
<path d="M377.761 60.5659L390.258 35.0434H398.66L411.114 60.5659H404.546L402.029 55.0534H386.76L383.988 60.5659H377.761ZM388.296 50.7997H400.451L394.608 38.9499H394.182L388.296 50.7997Z" fill="white"/>
<path d="M417.564 60.5659C416.512 60.5659 415.744 60.3489 415.261 59.9149C414.777 59.4808 414.536 58.7574 414.536 57.7446C414.536 56.7028 414.763 55.9794 415.218 55.5743C415.701 55.1402 416.483 54.9232 417.564 54.9232C418.644 54.9232 419.426 55.1402 419.909 55.5743C420.393 55.9794 420.635 56.7028 420.635 57.7446C420.635 58.7284 420.393 59.4519 419.909 59.9149C419.426 60.3489 418.644 60.5659 417.564 60.5659Z" fill="white"/>
<path d="M427.447 60.5659V35.0434H433.077V60.5659H427.447Z" fill="white"/>
<path d="M442.929 60.5659C441.877 60.5659 441.109 60.3489 440.626 59.9149C440.143 59.4808 439.901 58.7574 439.901 57.7446C439.901 56.7028 440.128 55.9794 440.583 55.5743C441.067 55.1402 441.849 54.9232 442.929 54.9232C444.01 54.9232 444.792 55.1402 445.275 55.5743C445.758 55.9794 446 56.7028 446 57.7446C446 58.7284 445.758 59.4519 445.275 59.9149C444.792 60.3489 444.01 60.5659 442.929 60.5659Z" fill="white"/>
</g>
<defs>
<linearGradient id="paint0_linear_4328_4277" x1="24.117" y1="56.9497" x2="-0.425751" y2="22.3001" gradientUnits="userSpaceOnUse">
<stop stop-color="#D53B00"/>
<stop offset="1" stop-color="#FF6A02"/>
</linearGradient>
<clipPath id="clip0_4328_4277">
<rect width="450" height="67" fill="white"/>
</clipPath>
</defs>
</svg>
